<svg width="128" height="128" viewBox="0 0 128 128" fill="none" xmlns="http://www.w3.org/2000/svg">
<path d="M8 106.307C8 113.717 14.0625 119.78 21.4722 119.78H73.2083C68.9646 114.121 64.1806 107.183 64.1806 99.5712C64.1806 80.9796 76.9778 68.1823 95.5695 68.1823C97.8597 68.1823 100.15 68.3844 102.306 68.856V8.76845C102.306 3.91845 97.3882 0.685112 92.9424 2.57122L55.1528 22.1059L17.3632 2.57122C12.9174 0.617744 8 3.91845 8 8.76845V106.307Z" fill="#FFB700"/>
<rect x="61" y="70" width="45" height="40" fill="white"/>
<path d="M120 91C120 71.68 104.32 56 85 56C65.68 56 50 71.68 50 91C50 110.32 65.68 126 85 126C104.32 126 120 110.32 120 91ZM85 108.179V96.5H68.0864C66.1614 96.5 63.5864 92.925 63.5864 91C63.5864 89.075 66.1614 85.5 68.0864 85.5H85V72.8214C85 71.2464 86.89 70.4764 87.975 71.5964L105.154 89.775C105.854 90.475 105.854 91.56 105.154 92.26L87.975 109.439C86.89 110.524 85 109.754 85 108.179Z" fill="#3769FF"/>
</svg>
